<svg xmlns="http://www.w3.org/2000/svg" xmlns:xlink="http://www.w3.org/1999/xlink" height="800" width="800" viewBox="0 0 64 64"><circle cx="32" cy="32" r="32" fill="#2ab7ca"/><g opacity=".2" fill="#231f20"><path d="M42.5 44c-.7 0-1.3-.3-1.7-1-.6-.9-.3-2.2.7-2.8L51.6 34v-.1-.1l-10.1-6.2c-.9-.6-1.2-1.8-.7-2.8.6-.9 1.8-1.2 2.8-.7l10.6 6.6.2.2c.8.8 1.2 1.9 1.2 3s-.4 2.2-1.2 3l-.2.2-10.6 6.6c-.4.2-.8.3-1.1.3zm-21 0a1.69 1.69 0 0 1-1-.3L9.9 37.1l-.2-.1c-.8-.8-1.2-1.9-1.2-3s.4-2.2 1.2-3l.2-.2 10.6-6.6c.9-.6 2.2-.3 2.8.7.6.9.3 2.2-.7 2.8l-10.1 6.2v.1.1l10.1 6.2c.9.6 1.2 1.8.7 2.8-.4.6-1.1.9-1.8.9z"/></g><g opacity=".2"><use xlink:href="#B" fill="#231f20"/></g><g fill="#fff"><path d="M42.5 42c-.7 0-1.3-.3-1.7-1-.6-.9-.3-2.2.7-2.8L51.6 32v-.1l-10.1-6.2c-.9-.6-1.2-1.8-.7-2.8.6-.9 1.8-1.2 2.8-.7l10.6 6.6.2.2c1.6 1.6 1.6 4.3 0 6l-.2.2-10.6 6.6c-.4.1-.8.2-1.1.2zm-21 0a1.69 1.69 0 0 1-1-.3L9.9 35.1l-.2-.1c-1.6-1.6-1.6-4.3 0-6l.2-.2 10.6-6.6c.9-.6 2.2-.3 2.8.7.6.9.3 2.2-.7 2.8l-10.1 6.2v.1l10.1 6.2c.9.6 1.2 1.8.7 2.8-.4.7-1.1 1-1.8 1z"/><use xlink:href="#B" y="-2"/></g><defs ><path id="B" d="M25.5 53c-.2 0-.5 0-.7-.1-1-.4-1.5-1.6-1.2-2.6l13-34c.4-1 1.6-1.5 2.6-1.2 1 .4 1.5 1.6 1.2 2.6l-13 34c-.3.8-1.1 1.3-1.9 1.3z"/></defs></svg>